# Blender 4.3.2
# www.blender.org
mtllib H.mtl
o 082_1_-_1
v 0.135200 10.707751 -0.728324
v 0.000198 10.710168 -0.708777
v 0.023201 10.707751 -0.728324
v -0.053799 10.722999 -0.582581
v -0.015801 10.711459 -0.695840
v -0.122799 10.722999 -0.582581
v -0.045799 10.711918 -0.690474
v -0.046799 10.714126 -0.666807
v 0.054199 10.704879 -0.753241
v 0.092201 10.701547 -0.783521
v -0.043801 10.648518 -1.293005
v -0.043801 10.701463 -0.786681
v -0.122799 10.648518 -1.293005
v -0.043801 10.706253 -0.737141
v -0.044800 10.709418 -0.713184
v -0.043801 10.704337 -0.761767
v -0.028801 10.712085 -0.684151
v -0.023800 10.712293 -0.688271
v -0.038799 10.713584 -0.675333
v -0.033798 10.712834 -0.679744
v -0.042801 10.713377 -0.671218
v 0.023201 11.503360 -0.811387
v 0.000198 11.505110 -0.793087
v 0.135200 11.503360 -0.811387
v -0.015801 11.506401 -0.780151
v -0.053799 11.518897 -0.666600
v -0.046799 11.510024 -0.750827
v -0.045799 11.507525 -0.773537
v -0.122799 11.518897 -0.666600
v 0.092201 11.497152 -0.866581
v 0.054199 11.500485 -0.836300
v -0.122799 11.444125 -1.376064
v -0.043801 11.497361 -0.870700
v -0.043801 11.444125 -1.376064
v -0.044800 11.505316 -0.797204
v -0.043801 11.502151 -0.821160
v -0.043801 11.500235 -0.845787
v -0.023800 11.507235 -0.772581
v -0.028801 11.507983 -0.768170
v -0.033798 11.508733 -0.763763
v -0.038799 11.508525 -0.759645
v -0.042801 11.509275 -0.755238
vn -0.0000 -0.9945 0.1046
vn -0.0000 -0.9945 0.1045
vn -0.0000 0.9945 -0.1046
vn -0.6322 -0.0814 -0.7705
vn -0.6365 -0.0805 -0.7671
vn -0.6365 -0.0805 -0.7670
vn -0.6323 -0.0813 -0.7704
vn -0.6418 -0.0802 -0.7627
vn 0.6115 0.0826 0.7869
vn 0.9981 0.0064 0.0608
vn 0.9981 0.0065 0.0608
vn -0.0000 0.1045 0.9945
vn 0.7918 -0.0639 -0.6075
vn -0.6305 -0.0812 -0.7719
vn -0.6312 -0.0811 -0.7714
vn -0.6312 -0.0811 -0.7713
vn -1.0000 -0.0000 -0.0000
vn 1.0000 0.0005 0.0043
vn 1.0000 -0.0000 -0.0000
vn -0.0000 -0.1046 -0.9945
vn 0.9989 0.0049 0.0462
vn 0.9994 0.0036 0.0344
vn 0.9996 0.0030 0.0289
vn 0.9999 0.0015 0.0141
vn -0.6667 -0.0780 -0.7412
vn -0.6714 -0.0775 -0.7370
vn -0.6473 -0.0797 -0.7580
vn -0.6796 -0.0767 -0.7295
vn -0.6858 -0.0758 -0.7239
vn -0.6850 -0.0754 -0.7246
vn -0.6971 -0.0750 -0.7130
vn -0.7021 -0.0745 -0.7081
vt 0.628660 0.710950
vt 0.494170 0.729870
vt 0.517420 0.710830
vt 0.439700 0.856930
vt 0.478190 0.743090
vt 0.371340 0.856930
vt 0.447940 0.749040
vt 0.446540 0.771970
vt 0.547920 0.685960
vt 0.585700 0.655270
vt 0.450440 0.143070
vt 0.450440 0.651850
vt 0.371340 0.143070
vt 0.449820 0.701540
vt 0.449040 0.725560
vt 0.450280 0.676970
vt 0.464500 0.754950
vt 0.469480 0.750490
vt 0.455130 0.763620
vt 0.459710 0.759320
vt 0.450730 0.767830
vt 0.482580 0.710830
vt 0.505830 0.729870
vt 0.371340 0.710950
vt 0.521810 0.743090
vt 0.560300 0.856930
vt 0.553460 0.771970
vt 0.552060 0.749040
vt 0.628660 0.856930
vt 0.414300 0.655270
vt 0.452080 0.685960
vt 0.628660 0.143070
vt 0.549560 0.651850
vt 0.549560 0.143070
vt 0.550960 0.725560
vt 0.550180 0.701540
vt 0.549720 0.676970
vt 0.530520 0.750490
vt 0.535500 0.754950
vt 0.540290 0.759320
vt 0.544870 0.763620
vt 0.549270 0.767830
vt 0.420000 0.517420
vt 0.420000 0.494170
vt 0.580000 0.494170
vt 0.580000 0.517420
vt 0.420000 0.478190
vt 0.580000 0.478190
vt 0.420000 0.560300
vt 0.420000 0.371340
vt 0.580000 0.371340
vt 0.580000 0.560300
vt 0.420000 0.771970
vt 0.420000 0.749040
vt 0.580000 0.749040
vt 0.580000 0.771970
vt 0.420000 0.628660
vt 0.580000 0.628660
vt 0.420000 0.710950
vt 0.420000 0.655270
vt 0.580000 0.655270
vt 0.580000 0.710950
vt 0.420000 0.585700
vt 0.420000 0.547920
vt 0.580000 0.547920
vt 0.580000 0.585700
vt 0.580000 0.143070
vt 0.580000 0.856930
vt 0.420000 0.856930
vt 0.420000 0.143070
vt 0.420000 0.651850
vt 0.580000 0.651850
vt 0.420000 0.450440
vt 0.580000 0.450440
vt 0.420000 0.725560
vt 0.580000 0.725560
vt 0.420000 0.701540
vt 0.580000 0.701540
vt 0.420000 0.676970
vt 0.580000 0.676970
vt 0.420000 0.469480
vt 0.420000 0.464500
vt 0.580000 0.464500
vt 0.580000 0.469480
vt 0.420000 0.459710
vt 0.420000 0.455130
vt 0.580000 0.455130
vt 0.580000 0.459710
vt 0.420000 0.450730
vt 0.420000 0.446540
vt 0.580000 0.446540
vt 0.580000 0.450730
s 1
usemtl Madagascar
f 1/1/1 2/2/1 3/3/1
f 1/1/1 4/4/1 5/5/1 2/2/1
f 6/6/2 7/7/1 8/8/1 4/4/1
f 9/9/1 10/10/1 1/1/1 3/3/1
f 11/11/1 12/12/1 6/6/2 13/13/1
f 6/6/2 14/14/1 15/15/1 7/7/1
f 6/6/2 12/12/1 16/16/1 14/14/1
f 5/5/1 4/4/1 17/17/1 18/18/1
f 17/17/1 4/4/1 19/19/1 20/20/1
f 19/19/1 4/4/1 8/8/1 21/21/1
f 22/22/3 23/23/3 24/24/3
f 23/23/3 25/25/3 26/26/3 24/24/3
f 26/26/3 27/27/3 28/28/3 29/29/3
f 22/22/3 24/24/3 30/30/3 31/31/3
f 32/32/3 29/29/3 33/33/3 34/34/3
f 28/28/3 35/35/3 36/36/3 29/29/3
f 36/36/3 37/37/3 33/33/3 29/29/3
f 38/38/3 39/39/3 26/26/3 25/25/3
f 40/40/3 41/41/3 26/26/3 39/39/3
f 42/42/3 27/27/3 26/26/3 41/41/3
f 3/43/4 2/44/5 23/45/6 22/46/7
f 2/44/5 5/47/8 25/48/8 23/45/6
f 4/49/9 1/50/9 24/51/9 26/52/9
f 8/53/10 7/54/10 28/55/11 27/56/10
f 6/57/12 4/49/12 26/52/12 29/58/12
f 1/59/13 10/60/13 30/61/13 24/62/13
f 10/63/14 9/64/15 31/65/16 30/66/14
f 9/64/15 3/43/4 22/46/7 31/65/16
f 13/67/17 6/68/17 29/69/17 32/70/17
f 12/71/18 11/70/19 34/67/19 33/72/18
f 11/73/20 13/50/20 32/51/20 34/74/20
f 7/54/21 15/75/22 35/76/22 28/55/21
f 15/75/22 14/77/23 36/78/23 35/76/22
f 14/77/23 16/79/24 37/80/24 36/78/23
f 16/79/24 12/71/18 33/72/18 37/80/24
f 18/81/25 17/82/26 39/83/26 38/84/25
f 5/47/8 18/81/27 38/84/27 25/48/8
f 20/85/28 19/86/29 41/87/30 40/88/28
f 17/82/26 20/85/28 40/88/28 39/83/26
f 21/89/31 8/90/32 27/91/32 42/92/31
f 19/86/29 21/89/31 42/92/31 41/87/30
o 083_H_-_H
v -1.859799 9.972865 -7.696791
v -0.881802 9.972865 -7.696791
v -0.881802 10.183768 -5.692674
v -0.881802 10.281199 -4.772494
v -0.881802 10.470901 -2.959835
v -1.859799 10.470901 -2.959835
v 0.894199 9.972865 -7.696791
v 1.872200 9.972865 -7.696791
v 0.894199 10.183768 -5.692674
v 1.872200 10.470901 -2.959835
v 0.894199 10.470901 -2.959835
v 0.894199 10.281199 -4.772494
v -0.881802 11.079034 -5.787233
v -0.881802 10.868132 -7.791348
v -1.859799 10.868132 -7.791348
v -1.859799 11.366166 -3.054391
v -0.881802 11.366166 -3.054391
v -0.881802 11.176174 -4.866096
v 0.894199 11.079034 -5.787233
v 1.872200 10.868132 -7.791348
v 0.894199 10.868132 -7.791348
v 0.894199 11.176174 -4.866096
v 0.894199 11.366166 -3.054391
v 1.872200 11.366166 -3.054391
vn 0.0002 -0.9945 0.1047
vn -0.0000 -0.9945 0.1047
vn 0.0003 -0.9945 0.1049
vn 0.0003 -0.9945 0.1048
vn 0.0002 -0.9945 0.1043
vn 0.0002 -0.9945 0.1046
vn -0.0003 -0.9945 0.1049
vn -0.0000 -0.9945 0.1046
vn 0.0001 -0.9945 0.1045
vn -0.0002 0.9945 -0.1047
vn -0.0000 0.9945 -0.1047
vn -0.0001 0.9945 -0.1046
vn -0.0001 0.9945 -0.1044
vn -0.0000 0.9945 -0.1046
vn 0.0002 0.9945 -0.1047
vn 0.0001 0.9945 -0.1046
vn -0.0000 0.9945 -0.1043
vn 0.0001 0.9945 -0.1044
vn -0.0000 -0.1046 -0.9945
vn 1.0000 -0.0000 -0.0000
vn -0.0000 0.1046 0.9945
vn -1.0000 -0.0000 -0.0000
vn -0.0000 0.1048 0.9945
vn -0.0000 -0.1050 -0.9945
vt 0.189000 0.103070
vt 0.352020 0.103070
vt 0.352020 0.439010
vt 0.352020 0.593230
vt 0.352020 0.896930
vt 0.189000 0.896930
vt 0.647980 0.103070
vt 0.811000 0.103070
vt 0.647980 0.439010
vt 0.811000 0.896930
vt 0.647980 0.896930
vt 0.647980 0.593230
vt 0.590000 0.189000
vt 0.590000 0.352020
vt 0.410000 0.352020
vt 0.410000 0.189000
vt 0.590000 0.103070
vt 0.590000 0.439010
vt 0.410000 0.439010
vt 0.410000 0.103070
vt 0.590000 0.593230
vt 0.590000 0.896930
vt 0.410000 0.896930
vt 0.410000 0.593230
vt 0.590000 0.647980
vt 0.590000 0.811000
vt 0.410000 0.811000
vt 0.410000 0.647980
s 1
usemtl Valerie
f 43/93/33 44/94/34 45/95/35
f 46/96/36 47/97/34 48/98/37
f 49/99/34 50/100/38 51/101/39
f 52/102/40 53/103/40 54/104/41
f 51/101/39 54/104/41 46/96/36 45/95/35
f 54/104/41 51/101/39 50/100/38 52/102/40
f 48/98/37 43/93/33 45/95/35 46/96/36
f 55/101/42 56/99/43 57/100/44
f 58/102/45 59/103/46 60/104/42
f 61/95/47 62/93/48 63/94/43
f 64/96/47 65/97/49 66/98/50
f 55/101/42 60/104/42 64/96/47 61/95/47
f 66/98/50 62/93/48 61/95/47 64/96/47
f 60/104/42 55/101/42 57/100/44 58/102/45
f 57/105/51 56/106/51 44/107/51 43/108/51
f 56/109/52 55/110/52 45/111/52 44/112/52
f 60/113/52 59/114/52 47/115/52 46/116/52
f 59/117/53 58/118/53 48/119/53 47/120/53
f 63/117/51 62/118/51 50/119/51 49/120/51
f 61/111/54 63/112/54 49/109/54 51/110/54
f 66/105/53 65/106/53 53/107/53 52/108/53
f 65/115/54 64/116/54 54/113/54 53/114/54
f 64/106/55 60/117/55 46/120/55 54/107/55
f 55/106/56 61/117/56 51/120/56 45/107/56
f 62/109/52 66/114/52 52/115/52 50/112/52
f 58/115/54 57/112/54 43/109/54 48/114/54
o 084_Box_3
v 4.316200 11.066705 -0.241807
v 4.056202 10.931273 -0.518184
v 4.374199 11.003521 -0.525474
v 4.056202 11.040969 -0.174379
v -4.043800 10.931273 -0.518184
v -4.043800 11.040969 -0.174379
v -4.361801 11.003521 -0.525474
v -4.303799 11.066705 -0.241807
v 4.056202 9.989229 -9.468720
v 4.374199 10.062435 -9.475719
v -4.043800 9.989229 -9.468720
v -4.361801 10.062435 -9.475719
v 4.056202 10.025278 -9.827770
v 4.316200 10.064220 -9.766797
v -4.043800 10.025278 -9.827770
v -4.303799 10.064220 -9.766797
v -4.493801 10.237503 -9.494589
v -4.361801 10.201303 -9.846346
v -4.493801 11.179546 -0.544052
v -4.361801 11.216703 -0.192001
v -4.361801 10.413528 -9.513165
v -4.303799 10.351300 -9.796539
v -4.361801 11.355572 -0.562631
v -4.303799 11.352828 -0.271841
v -4.043800 11.232240 -0.047211
v 4.056202 11.232240 -0.047211
v 4.374199 11.216703 -0.192001
v -4.043800 11.392729 -0.210580
v 4.056202 11.392729 -0.210580
v 4.316200 11.352828 -0.271841
v 4.056202 10.186056 -9.992092
v 4.374199 10.201303 -9.846346
v -4.043800 10.186056 -9.992092
v 4.056202 10.377328 -9.864925
v 4.316200 10.351300 -9.796539
v -4.043800 10.377328 -9.864925
v 4.506199 11.179546 -0.544052
v 4.506199 10.237503 -9.494589
v 4.374199 11.355572 -0.562631
v 4.374199 10.413528 -9.513165
v -4.043800 11.427820 -0.569921
v 4.056202 11.427820 -0.569921
v -4.043800 10.487024 -9.521123
v 4.056202 10.487024 -9.521123
vn -0.0000 -0.9945 0.1046
vn 0.4857 -0.8694 0.0915
vn 0.4450 -0.7547 0.4821
vn -0.0000 -0.8427 0.5384
vn -0.4856 -0.8694 0.0915
vn -0.4450 -0.7547 0.4821
vn 0.4856 -0.8694 0.0914
vn -0.4856 -0.8694 0.0914
vn -0.0000 -0.9363 -0.3512
vn 0.4450 -0.8385 -0.3145
vn -0.4450 -0.8385 -0.3145
vn -1.0000 -0.0000 -0.0000
vn -0.7433 -0.0700 -0.6653
vn -1.0000 -0.0003 0.0001
vn -0.7433 0.0700 0.6653
vn -0.4856 0.8694 -0.0915
vn -0.4450 0.7547 -0.4821
vn -0.4856 0.8694 -0.0914
vn -0.4450 0.8385 0.3145
vn -0.0000 0.1046 0.9945
vn -0.0000 0.1040 0.9946
vn 0.7433 0.0700 0.6653
vn -0.0000 0.9363 0.3512
vn 0.4450 0.8385 0.3145
vn -0.0000 -0.1046 -0.9945
vn 0.7433 -0.0700 -0.6653
vn -0.0000 -0.1041 -0.9946
vn -0.0000 0.8427 -0.5383
vn 0.4450 0.7547 -0.4821
vn 1.0000 -0.0000 -0.0000
vn 1.0000 -0.0007 -0.0000
vn 0.4857 0.8694 -0.0914
vn 0.4857 0.8694 -0.0915
vn -0.0000 0.9945 -0.1046
vt 0.050000 0.050000
vt 0.000000 0.050000
vt 0.000000 0.000000
vt 0.050000 0.000000
vt 0.950000 0.050000
vt 0.950000 0.000000
vt 1.000000 0.050000
vt 1.000000 0.000000
vt 0.050000 0.950000
vt 0.000000 0.950000
vt 0.950000 0.950000
vt 1.000000 0.950000
vt 0.050000 1.000000
vt 0.000000 1.000000
vt 0.950000 1.000000
vt 1.000000 1.000000
vt 0.050000 0.500000
vt 0.000000 0.500000
vt 0.950000 0.500000
vt 1.000000 0.500000
s 1
usemtl Nemo_1
f 68/121/57 69/122/58 67/123/59 70/124/60
f 71/125/57 68/121/57 70/124/60 72/126/60
f 73/127/61 71/125/57 72/126/60 74/128/62
f 75/129/57 76/130/63 69/122/58 68/121/57
f 77/131/57 75/129/57 68/121/57 71/125/57
f 78/132/64 77/131/57 71/125/57 73/127/61
f 79/133/65 80/134/66 76/130/63 75/129/57
f 81/135/65 79/133/65 75/129/57 77/131/57
f 82/136/67 81/135/65 77/131/57 78/132/64
f 83/137/68 84/138/69 82/123/67 78/124/64
f 85/139/70 83/137/68 78/124/64 73/126/61
f 86/140/71 85/139/70 73/126/61 74/128/62
f 87/133/72 88/134/73 84/138/69 83/137/68
f 89/135/74 87/133/72 83/137/68 85/139/70
f 90/136/75 89/135/74 85/139/70 86/140/71
f 91/137/76 86/138/71 74/123/62 72/124/60
f 92/139/77 91/137/76 72/124/60 70/126/60
f 93/140/78 92/139/77 70/126/60 67/128/59
f 94/133/79 90/134/75 86/138/71 91/137/76
f 95/135/79 94/133/79 91/137/76 92/139/77
f 96/136/80 95/135/79 92/139/77 93/140/78
f 97/137/81 98/138/82 80/123/66 79/124/65
f 99/139/83 97/137/81 79/124/65 81/126/65
f 84/140/69 99/139/83 81/126/65 82/128/67
f 100/133/84 101/134/85 98/138/82 97/137/81
f 102/135/84 100/133/84 97/137/81 99/139/83
f 88/136/73 102/135/84 99/139/83 84/140/69
f 103/137/86 93/138/78 67/123/59 69/124/58
f 104/139/87 103/137/86 69/124/58 76/126/63
f 98/140/82 104/139/87 76/126/63 80/128/66
f 105/133/88 96/134/80 93/138/78 103/137/86
f 106/135/89 105/133/88 103/137/86 104/139/87
f 101/136/85 106/135/89 104/139/87 98/140/82
f 107/121/90 89/122/74 90/123/75 94/124/79
f 108/125/90 107/121/90 94/124/79 95/126/79
f 105/127/88 108/125/90 95/126/79 96/128/80
f 109/129/90 87/130/72 89/122/74 107/121/90
f 110/131/90 109/129/90 107/121/90 108/125/90
f 106/132/89 110/131/90 108/125/90 105/127/88
f 102/133/84 88/134/73 87/130/72 109/129/90
f 100/135/84 102/133/84 109/129/90 110/131/90
f 101/136/85 100/135/84 110/131/90 106/132/89
